<svg width="128" height="128" viewBox="0 0 128 128" fill="none" xmlns="http://www.w3.org/2000/svg">
<g clip-path="url(#clip0_626_3038)">
<rect width="128" height="128" fill="#333333"/>
<g opacity="0.7">
<rect x="91.8501" y="-89" width="4.22761" height="256" transform="rotate(45 91.8501 -89)" fill="#CC22DB"/>
<rect x="97.668" y="-83.1822" width="4.22761" height="256" transform="rotate(45 97.668 -83.1822)" fill="#CC22DB"/>
<rect x="103.486" y="-77.3644" width="4.22761" height="256" transform="rotate(45 103.486 -77.3644)" fill="#CC22DB"/>
<rect x="109.303" y="-71.5466" width="4.22761" height="256" transform="rotate(45 109.303 -71.5466)" fill="#CC22DB"/>
<rect x="115.121" y="-65.7288" width="4.22761" height="256" transform="rotate(45 115.121 -65.7288)" fill="#CC22DB"/>
<rect x="120.939" y="-59.911" width="4.22761" height="256" transform="rotate(45 120.939 -59.911)" fill="#CC22DB"/>
<rect x="126.757" y="-54.0932" width="4.22761" height="256" transform="rotate(45 126.757 -54.0932)" fill="#CC22DB"/>
<rect x="132.575" y="-48.2754" width="4.22761" height="256" transform="rotate(45 132.575 -48.2754)" fill="#CC22DB"/>
<rect x="138.393" y="-42.4576" width="4.22761" height="256" transform="rotate(45 138.393 -42.4576)" fill="#CC22DB"/>
<rect x="144.21" y="-36.6398" width="4.22761" height="256" transform="rotate(45 144.21 -36.6398)" fill="#CC22DB"/>
<rect x="150.028" y="-30.822" width="4.22761" height="256" transform="rotate(45 150.028 -30.822)" fill="#CC22DB"/>
<rect x="155.846" y="-25.0042" width="4.22761" height="256" transform="rotate(45 155.846 -25.0042)" fill="#CC22DB"/>
<rect x="161.664" y="-19.1864" width="4.22761" height="256" transform="rotate(45 161.664 -19.1864)" fill="#CC22DB"/>
<rect x="167.481" y="-13.3686" width="4.22761" height="256" transform="rotate(45 167.481 -13.3686)" fill="#CC22DB"/>
<rect x="173.299" y="-7.55078" width="4.22761" height="256" transform="rotate(45 173.299 -7.55078)" fill="#CC22DB"/>
<rect x="179.117" y="-1.73303" width="4.22761" height="256" transform="rotate(45 179.117 -1.73303)" fill="#CC22DB"/>
<rect x="184.935" y="4.08478" width="4.22761" height="256" transform="rotate(45 184.935 4.08478)" fill="#CC22DB"/>
<rect x="190.753" y="9.90259" width="4.22761" height="256" transform="rotate(45 190.753 9.90259)" fill="#CC22DB"/>
<rect x="196.571" y="15.7204" width="4.22761" height="256" transform="rotate(45 196.571 15.7204)" fill="#CC22DB"/>
<rect x="202.388" y="21.5382" width="4.22761" height="256" transform="rotate(45 202.388 21.5382)" fill="#CC22DB"/>
<rect x="208.206" y="27.356" width="4.22761" height="256" transform="rotate(45 208.206 27.356)" fill="#CC22DB"/>
<rect x="214.024" y="33.1738" width="4.22761" height="256" transform="rotate(45 214.024 33.1738)" fill="#CC22DB"/>
</g>
</g>
<defs>
<clipPath id="clip0_626_3038">
<rect width="128" height="128" fill="white"/>
</clipPath>
</defs>
</svg>
